<svg width="619" height="378" viewBox="0 0 619 378" fill="none" xmlns="http://www.w3.org/2000/svg">
<path d="M95.4129 328.314C100.482 347.056 117.843 358.663 117.843 358.663C117.843 358.663 126.986 339.884 121.918 321.142C116.849 302.4 99.4876 290.793 99.4876 290.793C99.4876 290.793 90.3442 309.572 95.4129 328.314Z" fill="#3F3D56"/>
<path d="M102.861 324.286C116.769 337.829 118.468 358.648 118.468 358.648C118.468 358.648 97.6169 357.509 83.7085 343.966C69.8 330.423 68.1012 309.604 68.1012 309.604C68.1012 309.604 88.9524 310.743 102.861 324.286Z" fill="white"/>
<path d="M556.909 376.488H67.1512V378H556.909V376.488Z" fill="#2F2E41"/>
<path d="M124.707 377.244H105.056V357.588H124.707V377.244ZM106.568 375.732H123.195V359.1H106.568V375.732Z" fill="#3F3D56"/>
<path d="M166.538 14.989H0V181.571H166.538V14.989Z" fill="#3F3D56"/>
<path d="M166.538 56.4338V60.2572C164 58.5752 161.951 56.2523 160.599 53.5237C158.382 48.9879 158.452 43.7596 158.522 38.7019C158.602 32.6909 158.683 27.0211 154.87 23.3282C150.677 19.274 143.965 19.846 137.474 20.3979C136.712 20.4581 135.949 20.5283 135.197 20.5885C128.686 21.0803 121.432 19.4345 117.911 14.989H122.305C125.526 17.1566 130.452 17.9192 134.976 17.578C135.708 17.5278 136.461 17.4576 137.213 17.3974C144.045 16.8154 151.79 16.1531 156.957 21.1605C161.713 25.7566 161.622 32.3597 161.532 38.742C161.462 43.4485 161.402 48.3055 163.308 52.199C164.098 53.8076 165.196 55.2461 166.538 56.4338Z" fill="white"/>
<path d="M166.538 82.8763V87.3519C165.807 86.3968 164.988 85.5131 164.09 84.7127C158.913 80.1467 151.479 79.1432 144.296 78.1598C143.363 78.0393 142.45 77.9089 141.537 77.7785C129.89 76.1026 122.666 72.0986 119.466 65.5658C117.249 61.0299 117.319 55.8016 117.389 50.744C117.47 44.733 117.55 39.0631 113.737 35.3703C109.544 31.316 102.832 31.8881 96.3413 32.44C95.5788 32.5002 94.8163 32.5704 94.0639 32.6306C85.6969 33.2628 76.0958 30.3628 74.7816 22.5254C74.3302 19.8359 75.0023 17.3673 75.9955 14.989H79.2862C78.1826 17.3774 77.3599 19.6854 77.7512 22.0236C78.7444 28.0045 86.7904 30.152 93.8432 29.6201C94.5756 29.5699 95.328 29.4997 96.0804 29.4395C102.913 28.8575 110.658 28.1951 115.824 33.2026C120.58 37.7987 120.489 44.4018 120.399 50.7841C120.329 55.4906 120.269 60.3476 122.175 64.2411C124.904 69.8207 131.374 73.2727 141.969 74.798C142.872 74.9285 143.785 75.0589 144.697 75.1794C152.322 76.213 160.218 77.2867 166.087 82.4548C166.237 82.5853 166.388 82.7257 166.538 82.8763Z" fill="white"/>
<path d="M166.538 158.32V164.502C162.916 160.648 159.887 155.36 157.569 148.746C157.078 147.342 156.606 145.907 156.134 144.472C153.536 136.614 150.847 128.496 144.447 123.308C137.605 117.768 127.803 116.544 118.322 115.36C117.108 115.209 115.894 115.059 114.691 114.898C99.3209 112.861 89.8001 108.014 85.5765 100.086C82.647 94.5772 82.7373 88.235 82.8276 82.1036C82.9379 74.8181 83.0483 67.9341 78.0121 63.4584C72.4842 58.5412 63.6255 59.2336 55.0679 59.906C54.0546 59.9862 53.0514 60.0665 52.0682 60.1368C41.0225 60.8995 28.3516 57.3872 26.626 47.8839C25.7732 43.2277 27.9503 39.1033 30.0471 35.1093C31.251 32.8213 32.3946 30.6437 32.9765 28.4059C34.2005 23.7998 32.6856 18.6117 29.3247 14.989H34.2406C35.6592 17.0498 36.6244 19.3883 37.0723 21.85C37.5202 24.3116 37.4407 26.8403 36.839 29.2689C36.1468 31.888 34.8626 34.3366 33.6186 36.7049C31.7024 40.3376 29.9066 43.7696 30.5386 47.2819C31.8629 54.5272 42.4672 57.1363 51.7672 56.4941C52.7404 56.4238 53.7336 56.3435 54.7268 56.2733C63.7359 55.5608 73.9489 54.7681 80.7709 60.8393C87.0412 66.4087 86.9208 74.4167 86.8004 82.1538C86.7201 87.8637 86.6298 93.7543 89.1379 98.4808C92.7396 105.234 101.287 109.429 115.262 111.286C116.446 111.446 117.65 111.597 118.854 111.747C128.927 113.002 139.33 114.296 147.065 120.568C154.319 126.449 157.178 135.069 159.927 143.408C160.398 144.833 160.87 146.238 161.351 147.633C162.627 151.398 164.369 154.988 166.538 158.32Z" fill="white"/>
<path d="M0 82.254C4.57478 87.7933 14.2761 89.8405 22.9742 89.2384C23.9574 89.1682 24.9606 89.0879 25.9739 89.0076C34.5316 88.3353 43.3902 87.6428 48.9181 92.56C53.9543 97.0356 53.844 103.92 53.7336 111.205C53.6433 117.337 53.553 123.679 56.4825 129.188C60.7061 137.116 70.2269 141.963 85.5965 144C86.8004 144.16 88.0144 144.311 89.2283 144.461C98.7089 145.646 108.511 146.87 115.353 152.409C121.753 157.597 124.442 165.716 127.04 173.573C127.512 175.008 127.984 176.443 128.475 177.848C128.927 179.143 129.408 180.377 129.91 181.571H134.204C133.451 179.935 132.809 178.3 132.257 176.734C131.776 175.339 131.304 173.934 130.833 172.509C128.084 164.17 125.225 155.55 117.971 149.67C110.236 143.398 99.8326 142.103 89.76 140.849C88.5561 140.698 87.3522 140.548 86.1684 140.387C72.1933 138.531 63.6456 134.336 60.044 127.582C57.5359 122.856 57.6262 116.965 57.7065 111.255C57.8269 103.518 57.9473 95.5104 51.677 89.9409C44.855 83.8697 34.642 84.6624 25.6328 85.3749C24.6396 85.4452 23.6464 85.5255 22.6733 85.5957C13.3732 86.238 2.76897 83.6289 1.44469 76.3835C0.812671 72.8713 2.60845 69.4393 4.52464 65.8066C5.76866 63.4383 7.05281 60.9897 7.74505 58.3706C9.63114 51.2055 6.45087 43.2678 2.25745e-05 38.9326V43.8498C3.5214 47.4825 5.1266 52.7911 3.88257 57.5075C3.30069 59.7454 2.15699 61.923 0.953102 64.211C0.632068 64.8231 0.31102 65.4252 2.25745e-05 66.0474L0 82.254Z" fill="white"/>
<path d="M73.668 181.571H69.5046C69.2839 180.919 69.0732 180.257 68.8525 179.594C66.254 171.737 63.5654 163.618 57.1647 158.43C50.3225 152.891 40.5209 151.667 31.0403 150.482C29.8263 150.332 28.6125 150.181 27.4085 150.021C13.8447 148.225 4.82559 144.231 0 137.868V127.884C0.310136 129.877 0.936691 131.808 1.85597 133.604C5.45764 140.357 14.0053 144.552 27.9804 146.408C29.1642 146.569 30.3681 146.719 31.572 146.87C41.6446 148.124 52.0482 149.419 59.7832 155.691C67.0366 161.571 69.8958 170.191 72.6447 178.531C72.9858 179.554 73.3169 180.568 73.668 181.571Z" fill="white"/>
<path d="M392.267 14.989H225.729V181.571H392.267V14.989Z" fill="#3F3D56"/>
<path d="M305.989 27.0309C305.988 36.416 303.505 45.6339 298.791 53.7487C294.077 61.8635 287.301 68.5863 279.15 73.2346C270.999 77.8829 261.764 80.2912 252.381 80.215C242.999 80.1389 233.804 77.5809 225.729 72.8008V14.9888H304.614C305.532 18.9368 305.994 22.9774 305.989 27.0309Z" fill="white"/>
<path d="M349.128 92.2589C366.858 92.2589 381.232 77.8817 381.232 60.1467C381.232 42.4116 366.858 28.0344 349.128 28.0344C331.398 28.0344 317.024 42.4116 317.024 60.1467C317.024 77.8817 331.398 92.2589 349.128 92.2589Z" fill="white"/>
<path d="M276.895 151.466C289.638 151.466 299.969 141.132 299.969 128.385C299.969 115.638 289.638 105.304 276.895 105.304C264.151 105.304 253.82 115.638 253.82 128.385C253.82 141.132 264.151 151.466 276.895 151.466Z" fill="white"/>
<path d="M392.267 154.276V181.571H359.251C357.849 177.18 357.793 172.47 359.091 168.048C360.389 163.625 362.98 159.693 366.532 156.756C370.084 153.82 374.433 152.014 379.02 151.572C383.606 151.13 388.22 152.072 392.267 154.276H392.267Z" fill="white"/>
<path d="M335.083 133.403C338.407 133.403 341.102 130.707 341.102 127.382C341.102 124.056 338.407 121.361 335.083 121.361C331.758 121.361 329.063 124.056 329.063 127.382C329.063 130.707 331.758 133.403 335.083 133.403Z" fill="white"/>
<path d="M619 14.989H452.462V181.571H619V14.989Z" fill="#3F3D56"/>
<path d="M533.724 14.9888V83.2273H452.462V87.2413H537.737V14.9888H533.724Z" fill="white"/>
<path d="M612.108 181.571L619 171.767V164.792L607.202 181.571H612.108ZM584.117 109.74L547.188 162.274L574.627 181.571H581.599L552.776 161.3L585.09 115.33L619 139.183V134.276L584.117 109.74Z" fill="white"/>
<path d="M522.689 103.087L501.41 124.371L522.689 145.656L543.968 124.371L522.689 103.087ZM507.078 124.371L522.689 108.757L538.299 124.371L522.689 139.986L507.078 124.371Z" fill="white"/>
<path d="M81.6264 30.24C89.9747 30.24 96.7424 23.4705 96.7424 15.12C96.7424 6.76946 89.9747 0 81.6264 0C73.278 0 66.5104 6.76946 66.5104 15.12C66.5104 23.4705 73.278 30.24 81.6264 30.24Z" fill="#F2F2F2"/>
<path d="M315.168 30.24C323.517 30.24 330.284 23.4705 330.284 15.12C330.284 6.76946 323.517 0 315.168 0C306.82 0 300.052 6.76946 300.052 15.12C300.052 23.4705 306.82 30.24 315.168 30.24Z" fill="#F2F2F2"/>
<path d="M538.129 30.24C546.478 30.24 553.245 23.4705 553.245 15.12C553.245 6.76946 546.478 0 538.129 0C529.781 0 523.013 6.76946 523.013 15.12C523.013 23.4705 529.781 30.24 538.129 30.24Z" fill="#F2F2F2"/>
<path d="M299.675 103.194C307.606 103.194 314.035 96.7631 314.035 88.8301C314.035 80.897 307.606 74.4661 299.675 74.4661C291.744 74.4661 285.314 80.897 285.314 88.8301C285.314 96.7631 291.744 103.194 299.675 103.194Z" fill="#FFB8B8"/>
<path d="M292.117 95.6341C292.117 95.6341 295.896 115.29 294.384 119.07C292.872 122.85 315.546 117.558 315.546 117.558C315.546 117.558 311.012 97.9021 311.767 93.3661C312.523 88.8301 292.117 95.6341 292.117 95.6341Z" fill="#FFB8B8"/>
<path d="M267.175 163.674L268.687 184.086L276.189 216.143L278.512 224.91L282.291 211.302L278.512 180.306L277.229 166.351L267.175 163.674Z" fill="#FFB8B8"/>
<path d="M346.534 160.65V181.818C346.534 181.818 344.267 209.034 339.732 215.838C335.197 222.642 333.686 188.622 333.686 188.622L337.239 163.674L346.534 160.65Z" fill="#FFB8B8"/>
<path d="M279.268 226.422C279.268 226.422 275.489 230.958 278.512 277.074C281.535 323.19 277.001 356.454 286.826 356.454C286.826 356.454 283.803 366.282 292.117 367.038C300.43 367.794 304.209 368.55 304.965 366.282C305.721 364.014 307.233 353.43 304.965 353.43C304.965 353.43 304.965 356.454 306.477 344.358C307.988 332.262 307.988 274.806 311.767 267.246L323.86 295.218C323.86 295.218 323.86 308.07 326.128 314.118C328.395 320.166 332.174 354.942 332.174 354.942L331.418 360.234C331.418 360.234 349.557 363.258 350.313 360.234C351.069 357.21 351.069 352.674 350.313 351.162C349.557 349.65 349.557 349.65 351.069 346.626C352.581 343.602 352.581 341.334 351.825 339.066C351.069 336.798 351.069 287.658 351.069 287.658C351.069 287.658 349.557 227.934 340.488 224.91C331.418 221.886 279.268 226.422 279.268 226.422Z" fill="#2F2E41"/>
<path d="M289.093 360.99L283.047 371.574C283.047 371.574 273.6 368.172 275.489 376.866C291.739 378 303.076 376.488 303.076 376.488C303.076 376.488 306.855 378 307.611 375.732C308.366 373.464 305.721 365.526 303.454 365.526C301.186 365.526 289.093 360.99 289.093 360.99Z" fill="#2F2E41"/>
<path d="M332.93 357.966C332.93 357.966 326.883 371.574 329.151 372.33C331.418 373.086 351.825 376.11 353.336 376.866C354.848 377.622 362.406 378.378 363.162 373.842C363.918 369.306 359.383 367.794 359.383 367.794C359.383 367.794 351.069 366.282 348.802 358.722C346.534 351.162 332.93 357.966 332.93 357.966Z" fill="#2F2E41"/>
<path d="M317.058 115.29C317.058 115.29 296.651 111.51 292.117 115.29C287.582 119.07 268.687 126.63 268.687 130.41C268.687 134.19 278.512 171.234 278.512 171.234C278.512 171.234 273.222 227.178 278.512 228.69C283.803 230.202 292.872 225.666 303.454 230.958C314.035 236.25 344.267 226.422 344.267 226.422C344.267 226.422 332.93 178.038 335.953 168.966C338.976 159.894 341.244 128.898 341.244 128.898C341.244 128.898 328.395 115.29 317.058 115.29Z" fill="#8985A8"/>
<path d="M273.977 128.142L268.687 129.654C268.687 129.654 257.35 165.186 261.885 166.698C266.419 168.21 279.268 171.234 280.78 171.234C282.291 171.234 273.977 128.142 273.977 128.142Z" fill="#8985A8"/>
<path d="M329.151 124.362L341.244 128.898C341.244 128.898 357.115 158.382 353.336 162.162C349.557 165.942 332.93 169.722 332.93 169.722L329.151 124.362Z" fill="#8985A8"/>
<path d="M299.238 71.0883C298.044 70.8719 296.817 70.9261 295.646 71.2469C294.709 71.6619 293.847 72.2278 293.093 72.922C291.726 74.0121 290.265 74.9801 288.728 75.8147C287.504 76.4797 286.187 77.0952 285.332 78.196C284.928 78.7522 284.605 79.3634 284.374 80.0109C282.901 83.7735 282.505 87.8721 283.23 91.8472C283.312 92.412 283.482 92.9604 283.734 93.4724C284.519 94.9201 286.254 95.4906 287.716 96.2495C290.491 97.6903 292.594 100.116 294.87 102.261C295.715 103.105 296.665 103.837 297.697 104.44C300.944 106.21 304.912 105.633 308.557 105.006C308.815 105.006 309.071 104.954 309.309 104.855C309.548 104.755 309.764 104.609 309.945 104.425C310.127 104.241 310.27 104.024 310.367 103.784C310.464 103.545 310.513 103.288 310.51 103.03L313.387 90.0869C313.909 88.1693 314.157 86.1876 314.125 84.2005C313.924 81.0585 312.224 76.7062 309.918 74.4744C307.232 71.8739 302.749 71.4601 299.238 71.0883Z" fill="#2F2E41"/>
<path d="M201.98 365.844C205.274 365.844 207.944 363.173 207.944 359.878C207.944 356.583 205.274 353.912 201.98 353.912C198.686 353.912 196.016 356.583 196.016 359.878C196.016 363.173 198.686 365.844 201.98 365.844Z" fill="white"/>
<path d="M201.98 377.113C198.572 377.113 195.241 376.102 192.407 374.208C189.574 372.314 187.365 369.623 186.061 366.474C184.757 363.324 184.416 359.859 185.081 356.516C185.746 353.173 187.387 350.102 189.796 347.691C192.206 345.281 195.276 343.639 198.618 342.974C201.961 342.309 205.425 342.651 208.574 343.955C211.722 345.26 214.413 347.469 216.306 350.303C218.2 353.137 219.21 356.469 219.21 359.878C219.205 364.447 217.388 368.828 214.158 372.059C210.928 375.29 206.548 377.108 201.98 377.113ZM201.98 343.969C198.834 343.969 195.759 344.902 193.144 346.65C190.528 348.398 188.49 350.883 187.286 353.79C186.082 356.697 185.767 359.896 186.381 362.982C186.994 366.068 188.509 368.903 190.733 371.127C192.958 373.352 195.792 374.868 198.877 375.481C201.962 376.095 205.16 375.78 208.066 374.576C210.973 373.372 213.457 371.333 215.204 368.717C216.952 366.1 217.885 363.025 217.885 359.878C217.88 355.66 216.203 351.617 213.221 348.634C210.239 345.652 206.197 343.974 201.98 343.969Z" fill="#2F2E41"/>
<path d="M492.207 366.6C495.501 366.6 498.171 363.929 498.171 360.634C498.171 357.339 495.501 354.668 492.207 354.668C488.913 354.668 486.243 357.339 486.243 360.634C486.243 363.929 488.913 366.6 492.207 366.6Z" fill="white"/>
<path d="M492.207 377.869C488.799 377.869 485.468 376.858 482.634 374.964C479.801 373.07 477.592 370.379 476.288 367.229C474.984 364.08 474.643 360.615 475.308 357.272C475.973 353.928 477.614 350.857 480.023 348.447C482.433 346.037 485.503 344.395 488.846 343.73C492.188 343.065 495.652 343.407 498.801 344.711C501.949 346.016 504.64 348.225 506.533 351.059C508.427 353.893 509.437 357.225 509.437 360.634C509.432 365.203 507.615 369.584 504.385 372.815C501.155 376.046 496.775 377.864 492.207 377.869ZM492.207 344.725C489.061 344.725 485.986 345.658 483.371 347.406C480.755 349.154 478.717 351.639 477.513 354.546C476.309 357.453 475.994 360.652 476.608 363.738C477.222 366.824 478.736 369.658 480.961 371.883C483.185 374.108 486.019 375.623 489.104 376.237C492.189 376.851 495.387 376.536 498.294 375.332C501.2 374.128 503.684 372.089 505.431 369.473C507.179 366.856 508.112 363.781 508.112 360.634C508.107 356.416 506.43 352.372 503.448 349.39C500.466 346.407 496.424 344.73 492.207 344.725V344.725Z" fill="#2F2E41"/>
<path d="M492.207 333.336C495.501 333.336 498.171 330.665 498.171 327.37C498.171 324.075 495.501 321.404 492.207 321.404C488.913 321.404 486.243 324.075 486.243 327.37C486.243 330.665 488.913 333.336 492.207 333.336Z" fill="white"/>
<path d="M492.207 344.605C488.799 344.605 485.468 343.594 482.634 341.7C479.801 339.806 477.592 337.115 476.288 333.966C474.984 330.816 474.643 327.351 475.308 324.008C475.973 320.664 477.614 317.594 480.023 315.183C482.433 312.773 485.503 311.131 488.846 310.466C492.188 309.801 495.652 310.143 498.801 311.447C501.949 312.752 504.64 314.961 506.533 317.795C508.427 320.629 509.437 323.961 509.437 327.37C509.432 331.939 507.615 336.32 504.385 339.551C501.155 342.782 496.775 344.6 492.207 344.605ZM492.207 311.461C489.061 311.461 485.986 312.394 483.371 314.142C480.755 315.89 478.717 318.375 477.513 321.282C476.309 324.189 475.994 327.388 476.608 330.474C477.222 333.56 478.736 336.395 480.961 338.619C483.185 340.844 486.019 342.36 489.104 342.973C492.189 343.587 495.387 343.272 498.294 342.068C501.2 340.864 503.684 338.825 505.431 336.209C507.179 333.592 508.112 330.517 508.112 327.37C508.107 323.152 506.43 319.108 503.448 316.126C500.466 313.144 496.424 311.466 492.207 311.461Z" fill="#2F2E41"/>
</svg>
